<svg width="20" height="20" viewBox="0 0 20 20" fill="none" xmlns="http://www.w3.org/2000/svg">
<path fill-rule="evenodd" clip-rule="evenodd" d="M6.01582 12.0583L8.07415 9.99997L6.01582 7.94163C5.95441 7.88441 5.90516 7.81541 5.871 7.73875C5.83684 7.66208 5.81847 7.57932 5.81699 7.4954C5.81551 7.41148 5.83095 7.32812 5.86238 7.2503C5.89382 7.17248 5.9406 7.10178 5.99995 7.04243C6.0593 6.98308 6.13 6.9363 6.20782 6.90486C6.28564 6.87343 6.369 6.85799 6.45292 6.85947C6.53684 6.86095 6.6196 6.87932 6.69627 6.91348C6.77293 6.94764 6.84193 6.99689 6.89915 7.0583L9.39915 9.5583C9.51619 9.67549 9.58193 9.83434 9.58193 9.99997C9.58193 10.1656 9.51619 10.3244 9.39915 10.4416L6.89915 12.9416C6.78067 13.052 6.62397 13.1121 6.46205 13.1093C6.30013 13.1064 6.14564 13.0408 6.03113 12.9263C5.91662 12.8118 5.85103 12.6573 5.84817 12.4954C5.84532 12.3335 5.90542 12.1768 6.01582 12.0583Z" fill="white" fill-opacity="0.5"/>
<path fill-rule="evenodd" clip-rule="evenodd" d="M3.12484 1.66699C2.73806 1.66699 2.36713 1.82064 2.09364 2.09413C1.82015 2.36762 1.6665 2.73855 1.6665 3.12533V16.8753C1.6665 17.6803 2.31984 18.3337 3.12484 18.3337H16.8748C17.2616 18.3337 17.6325 18.18 17.906 17.9065C18.1795 17.633 18.3332 17.2621 18.3332 16.8753V3.12533C18.3332 2.73855 18.1795 2.36762 17.906 2.09413C17.6325 1.82064 17.2616 1.66699 16.8748 1.66699H3.12484ZM2.9165 3.12533C2.9165 3.07007 2.93845 3.01708 2.97752 2.97801C3.01659 2.93894 3.06958 2.91699 3.12484 2.91699H12.4998V17.0837H3.12484C3.06958 17.0837 3.01659 17.0617 2.97752 17.0226C2.93845 16.9836 2.9165 16.9306 2.9165 16.8753V3.12533ZM13.7498 17.0837V2.91699H16.8748C16.9301 2.91699 16.9831 2.93894 17.0221 2.97801C17.0612 3.01708 17.0832 3.07007 17.0832 3.12533V16.8753C17.0832 16.9306 17.0612 16.9836 17.0221 17.0226C16.9831 17.0617 16.9301 17.0837 16.8748 17.0837H13.7498Z" fill="white" fill-opacity="0.5"/>
</svg>
