<svg width="17" height="17" viewBox="0 0 17 17" fill="none" xmlns="http://www.w3.org/2000/svg">
<path d="M17 9.26577C16.8511 10.8768 16.2465 12.4122 15.2569 13.6921C14.2672 14.9721 12.9336 15.9437 11.4119 16.4934C9.89017 17.043 8.24341 17.1479 6.66427 16.7958C5.08513 16.4437 3.63893 15.6492 2.49489 14.5051C1.35084 13.3611 0.556282 11.9149 0.204171 10.3357C-0.147939 8.75659 -0.0430338 7.10983 0.506613 5.58813C1.05626 4.06644 2.02791 2.73275 3.30788 1.74313C4.58784 0.753509 6.12318 0.148882 7.73423 0C6.79101 1.27607 6.33713 2.8483 6.45513 4.43073C6.57314 6.01317 7.2552 7.50069 8.37725 8.62275C9.49931 9.7448 10.9868 10.4269 12.5693 10.5449C14.1517 10.6629 15.7239 10.209 17 9.26577Z" fill="white"/>
</svg>
